<svg width="32" height="32" viewBox="0 0 32 32" fill="none" xmlns="http://www.w3.org/2000/svg">
<g clip-path="url(#clip0_553_9717)">
<path d="M31.2521 16.2994C31.2521 14.9884 31.1457 14.0317 30.9154 13.0396H15.9448V18.9569H24.7322C24.5551 20.4274 23.5984 22.642 21.4724 24.1301L21.4426 24.3282L26.176 27.9952L26.504 28.0279C29.5158 25.2463 31.2521 21.1537 31.2521 16.2994Z" fill="#4285F4"/>
<path d="M15.945 31.8901C20.2501 31.8901 23.8642 30.4727 26.5041 28.0279L21.4725 24.1301C20.1261 25.0691 18.3189 25.7246 15.945 25.7246C11.7284 25.7246 8.14966 22.9432 6.87394 19.0986L6.68694 19.1145L1.76505 22.9236L1.70068 23.1025C4.32273 28.3112 9.70862 31.8901 15.945 31.8901Z" fill="#34A853"/>
<path d="M6.87401 19.0987C6.5374 18.1066 6.3426 17.0435 6.3426 15.9451C6.3426 14.8466 6.5374 13.7837 6.85631 12.7915L6.84739 12.5803L1.86382 8.70996L1.70076 8.78752C0.620092 10.949 0 13.3762 0 15.9451C0 18.5141 0.620092 20.9412 1.70076 23.1026L6.87401 19.0987Z" fill="#FBBC05"/>
<path d="M15.945 6.16537C18.939 6.16537 20.9587 7.45869 22.1103 8.53948L26.6104 4.14571C23.8466 1.57679 20.2501 0 15.945 0C9.70862 0 4.32273 3.57875 1.70068 8.78742L6.85623 12.7915C8.14966 8.94693 11.7284 6.16537 15.945 6.16537Z" fill="#EB4335"/>
</g>
<defs>
<clipPath id="clip0_553_9717">
<rect width="32" height="32" fill="white"/>
</clipPath>
</defs>
</svg>
