<svg width="231" height="48" viewBox="0 0 231 48" fill="none" xmlns="http://www.w3.org/2000/svg">
<path d="M38 46.6L36.8 45.6C32.8 41.8 30 39.4 30 36.4C30 34 32 32 34.4 32C35.8 32 37.2 32.6 38 33.6C38.8 32.6 40.2 32 41.6 32C44 32 46 33.8 46 36.4C46 39.4 43.2 41.8 39.2 45.6L38 46.6Z" fill="#50B2C0"/>
<path d="M36 4C38.2 4 40 5.8 40 8V26.16L38 26L36 26.16V8H26V24L21 19.5L16 24V8H12V40H26.16C26.4 41.44 26.9 42.78 27.6 44H12C9.8 44 8 42.2 8 40V8C8 5.8 9.8 4 12 4H36Z" fill="#8381D9"/>
<path d="M62.815 36V10.62H73.903C76.567 10.62 78.631 11.208 80.095 12.384C81.559 13.536 82.291 15.144 82.291 17.208C82.291 18.576 81.943 19.752 81.247 20.736C80.551 21.72 79.591 22.44 78.367 22.896C79.807 23.304 80.923 24.024 81.715 25.056C82.531 26.064 82.939 27.348 82.939 28.908C82.939 31.164 82.171 32.916 80.635 34.164C79.123 35.388 77.011 36 74.299 36H62.815ZM67.243 21.384H73.111C76.255 21.384 77.827 20.172 77.827 17.748C77.827 15.324 76.255 14.112 73.111 14.112H67.243V21.384ZM67.243 32.508H73.723C76.891 32.508 78.475 31.236 78.475 28.692C78.475 26.148 76.891 24.876 73.723 24.876H67.243V32.508ZM95.1961 36.36C93.3721 36.36 91.7881 35.988 90.4441 35.244C89.1001 34.5 88.0561 33.444 87.3121 32.076C86.5681 30.684 86.1961 29.052 86.1961 27.18C86.1961 25.308 86.5681 23.688 87.3121 22.32C88.0561 20.952 89.1001 19.896 90.4441 19.152C91.7881 18.408 93.3721 18.036 95.1961 18.036C97.0201 18.036 98.6041 18.408 99.9481 19.152C101.292 19.896 102.336 20.952 103.08 22.32C103.824 23.688 104.196 25.308 104.196 27.18C104.196 29.052 103.824 30.684 103.08 32.076C102.336 33.444 101.292 34.5 99.9481 35.244C98.6041 35.988 97.0201 36.36 95.1961 36.36ZM95.1961 32.94C96.5401 32.94 97.6201 32.46 98.4361 31.5C99.2521 30.516 99.6601 29.076 99.6601 27.18C99.6601 25.26 99.2521 23.832 98.4361 22.896C97.6201 21.936 96.5401 21.456 95.1961 21.456C93.8521 21.456 92.7721 21.936 91.9561 22.896C91.1401 23.832 90.7321 25.26 90.7321 27.18C90.7321 29.076 91.1401 30.516 91.9561 31.5C92.7721 32.46 93.8521 32.94 95.1961 32.94ZM115.938 36.36C114.114 36.36 112.53 35.988 111.186 35.244C109.842 34.5 108.798 33.444 108.054 32.076C107.31 30.684 106.938 29.052 106.938 27.18C106.938 25.308 107.31 23.688 108.054 22.32C108.798 20.952 109.842 19.896 111.186 19.152C112.53 18.408 114.114 18.036 115.938 18.036C117.762 18.036 119.346 18.408 120.69 19.152C122.034 19.896 123.078 20.952 123.822 22.32C124.566 23.688 124.938 25.308 124.938 27.18C124.938 29.052 124.566 30.684 123.822 32.076C123.078 33.444 122.034 34.5 120.69 35.244C119.346 35.988 117.762 36.36 115.938 36.36ZM115.938 32.94C117.282 32.94 118.362 32.46 119.178 31.5C119.994 30.516 120.402 29.076 120.402 27.18C120.402 25.26 119.994 23.832 119.178 22.896C118.362 21.936 117.282 21.456 115.938 21.456C114.594 21.456 113.514 21.936 112.698 22.896C111.882 23.832 111.474 25.26 111.474 27.18C111.474 29.076 111.882 30.516 112.698 31.5C113.514 32.46 114.594 32.94 115.938 32.94ZM128.653 36V10.62H133.153V25.884H133.225L140.317 18.396H145.753L137.761 26.82L146.257 36H140.749L133.225 28.152H133.153V36H128.653ZM155.369 36L146.405 10.62H151.157L157.457 29.34L164.081 10.62H167.501L173.981 29.592L180.461 10.62H184.961L175.925 36H172.109L165.665 17.676L159.185 36H155.369ZM187.743 14.616V10.224H192.783V14.616H187.743ZM188.031 36V18.396H192.531V36H188.031ZM203.651 36.36C202.163 36.36 200.771 36.18 199.475 35.82C198.179 35.46 197.099 34.944 196.235 34.272L197.387 31.32C198.275 31.92 199.271 32.388 200.375 32.724C201.479 33.036 202.583 33.192 203.687 33.192C204.839 33.192 205.691 33 206.243 32.616C206.819 32.208 207.107 31.68 207.107 31.032C207.107 30.024 206.363 29.376 204.875 29.088L201.275 28.404C198.227 27.828 196.703 26.244 196.703 23.652C196.703 22.5 197.015 21.504 197.639 20.664C198.287 19.824 199.175 19.176 200.303 18.72C201.431 18.264 202.727 18.036 204.191 18.036C205.439 18.036 206.639 18.216 207.791 18.576C208.943 18.912 209.927 19.428 210.743 20.124L209.519 23.076C208.823 22.5 207.983 22.044 206.999 21.708C206.039 21.372 205.115 21.204 204.227 21.204C203.051 21.204 202.175 21.408 201.599 21.816C201.047 22.224 200.771 22.764 200.771 23.436C200.771 24.492 201.455 25.14 202.823 25.38L206.423 26.064C207.983 26.352 209.159 26.88 209.951 27.648C210.767 28.416 211.175 29.448 211.175 30.744C211.175 32.496 210.491 33.876 209.123 34.884C207.755 35.868 205.931 36.36 203.651 36.36ZM223.461 36.36C221.469 36.36 219.753 35.988 218.313 35.244C216.873 34.5 215.757 33.444 214.965 32.076C214.197 30.708 213.813 29.088 213.813 27.216C213.813 25.392 214.185 23.796 214.929 22.428C215.697 21.06 216.741 19.992 218.061 19.224C219.405 18.432 220.929 18.036 222.633 18.036C225.129 18.036 227.097 18.828 228.537 20.412C230.001 21.996 230.733 24.156 230.733 26.892V28.224H218.133C218.469 31.368 220.269 32.94 223.533 32.94C224.517 32.94 225.501 32.796 226.485 32.508C227.469 32.196 228.369 31.716 229.185 31.068L230.445 34.092C229.605 34.788 228.549 35.34 227.277 35.748C226.005 36.156 224.733 36.36 223.461 36.36ZM222.813 21.096C221.493 21.096 220.425 21.504 219.609 22.32C218.793 23.136 218.301 24.24 218.133 25.632H226.989C226.893 24.168 226.485 23.052 225.765 22.284C225.069 21.492 224.085 21.096 222.813 21.096Z" fill="url(#paint0_linear_1_17)"/>
<defs>
<linearGradient id="paint0_linear_1_17" x1="60" y1="24.5686" x2="232" y2="24.5686" gradientUnits="userSpaceOnUse">
<stop stop-color="#7FD1CC"/>
<stop offset="1" stop-color="#9694F5"/>
</linearGradient>
</defs>
</svg>
